<?xml version="1.0" encoding="UTF-8" standalone="no"?>
<!-- Created with Inkscape (http://www.inkscape.org/) -->

<svg
   xmlns:dc="http://purl.org/dc/elements/1.1/"
   xmlns:cc="http://creativecommons.org/ns#"
   xmlns:rdf="http://www.w3.org/1999/02/22-rdf-syntax-ns#"
   xmlns:svg="http://www.w3.org/2000/svg"
   xmlns="http://www.w3.org/2000/svg"
   xmlns:sodipodi="http://sodipodi.sourceforge.net/DTD/sodipodi-0.dtd"
   xmlns:inkscape="http://www.inkscape.org/namespaces/inkscape"
   version="1.1"
   id="svg2"
   width="4455.4888"
   height="2538.5891"
   viewBox="0 0 4455.4888 2538.5891"
   sodipodi:docname="logo-lancelot-grand-format.svg"
   inkscape:version="0.92.4 (5da689c313, 2019-01-14)">
  <metadata
     id="metadata8">
    <rdf:RDF>
      <cc:Work
         rdf:about="">
        <dc:format>image/svg+xml</dc:format>
        <dc:type
           rdf:resource="http://purl.org/dc/dcmitype/StillImage" />
        <dc:title></dc:title>
      </cc:Work>
    </rdf:RDF>
  </metadata>
  <defs
     id="defs6" />
  <sodipodi:namedview
     pagecolor="#ffffff"
     bordercolor="#666666"
     borderopacity="1"
     objecttolerance="10"
     gridtolerance="10"
     guidetolerance="10"
     inkscape:pageopacity="0"
     inkscape:pageshadow="2"
     inkscape:window-width="1920"
     inkscape:window-height="1001"
     id="namedview4"
     showgrid="false"
     inkscape:pagecheckerboard="true"
     fit-margin-top="0"
     fit-margin-left="0"
     fit-margin-right="0"
     fit-margin-bottom="0"
     inkscape:zoom="0.11004349"
     inkscape:cx="2658.9041"
     inkscape:cy="1324.0903"
     inkscape:window-x="-9"
     inkscape:window-y="-9"
     inkscape:window-maximized="1"
     inkscape:current-layer="svg2" />
  <path
     style="fill:#7a5219;fill-opacity:1;stroke:#7a5219;stroke-width:3.2311337;stroke-opacity:1"
     d="m 2218.5111,2503.7405 c -78.6755,-44.8617 -150.6993,-88.4754 -195.4833,-118.3733 -20.4371,-13.6441 -56.7693,-37.8068 -80.7382,-53.6959 -78.0706,-51.7515 -139.2418,-94.9444 -215.3909,-152.088 l -74.7965,-56.1282 H 837.52885 22.956048 v -17.9029 -17.9029 l 865.135902,2.1846 865.13585,2.1843 50.9071,37.5285 c 96.4469,71.1002 240.8851,169.586 319.058,217.5504 73.2873,44.9667 156.1426,92.974 160.4946,92.9928 10.1384,0.046 186.3315,-106.5528 274.0926,-165.8254 43.1705,-29.1567 154.8796,-108.2463 209.3692,-148.2322 l 47.8122,-35.0866 816.2956,0.1462 c 448.9624,0.082 816.9289,0.781 817.7025,1.555 0.7741,0.7741 2.1531,8.0223 3.0643,16.1071 l 1.6569,14.6997 -770.2376,0.1051 -770.2381,0.1051 -33.9272,26.5781 c -36.1111,28.2899 -150.7419,112.4557 -181.7885,133.4755 -10.2389,6.9324 -38.3058,25.6902 -62.3707,41.6845 -24.0649,15.9942 -59.8611,39.7986 -79.547,52.8985 -33.2916,22.1543 -230.5584,141.4273 -253.7007,153.3944 -5.6859,2.9405 -13.6821,5.3157 -17.7691,5.2782 -4.0865,-0.046 -33.6023,-14.9916 -65.5908,-33.2317 z"
     id="path26"
     inkscape:connector-curvature="0" />
  <path
     style="fill:#7a5219;fill-opacity:1;stroke:#7a5219;stroke-width:0.40389174;stroke-opacity:1"
     d="m 4392.8629,1960.8124 c -19.043,-0.8038 -26.3136,-1.4934 -28.878,-2.7395 -2.0677,-1.0048 -1.9868,-1.9548 0.3976,-4.681 2.6804,-3.0625 3.9288,-5.604 4.8523,-9.8779 1.6441,-7.6078 1.8196,-12.1142 1.7657,-45.2985 -0.046,-28.7134 -1.1141,-99.6476 -1.5047,-100.0386 -0.1646,-0.165 -3.2302,-1.035 -9.0459,-2.5678 -1.8328,-0.483 -3.332,-1.0185 -3.332,-1.1899 0,-2.3208 48.212,-4.9312 74.5177,-4.0347 10.9459,0.3728 14.7564,0.7815 15.864,1.7005 0.489,0.4062 0.5552,1.3633 0.3702,5.3505 -0.2422,5.1378 -0.9382,8.9625 -2.5411,13.9357 -1.7004,5.2755 -2.4223,5.5388 -4.9214,1.7948 -1.7945,-2.6886 -3.6282,-4.5513 -5.3326,-5.4165 -5.1183,-2.5976 -10.3838,-3.2189 -27.3678,-3.2288 l -13.4293,-0.01 v 30.3393 30.3394 l 2.9281,-0.2513 c 10.2102,-0.8705 31.7042,-1.9119 37.0263,-1.7935 9.7866,0.2193 10.3564,0.7722 10.2851,10.0259 -0.055,7.1577 -1.0496,12.451 -3.0465,16.2209 -2.5776,4.8661 -4.6659,4.1308 -6.8447,-2.4095 -1.0331,-3.1009 -1.6103,-4.1747 -2.9788,-5.5438 -3.2384,-3.2379 -6.8255,-3.7949 -24.5461,-3.8123 h -12.8234 v 15.0451 c 0.046,29.2166 1.3804,44.8571 4.3867,50.6905 2.8286,5.488 11.6957,8.4865 21.8067,7.3739 7.1901,-0.791 13.8534,-3.2019 18.3621,-6.6436 4.2062,-3.2106 5.9312,-6.1145 6.2296,-10.4857 0.1097,-1.5774 0.361,-3.1863 0.5616,-3.5752 1.0985,-2.1207 4.9282,1.2013 6.4426,5.589 0.8097,2.3464 0.9618,3.5647 0.9541,7.6384 0,5.7576 -0.8372,8.3933 -3.487,11.1235 -1.7552,1.8087 -6.0003,3.9732 -9.4283,4.8072 -6.9521,1.6916 -28.3383,2.43 -47.2552,1.6322 z"
     id="path28"
     inkscape:connector-curvature="0" />
  <path
     style="fill:#7a5219;fill-opacity:1;stroke:#7a5219;stroke-width:0.40389174;stroke-opacity:1"
     d="m 4142.8543,1962.0187 c -18.1551,-1.2173 -33.5119,-4.1043 -32.296,-6.072 0.1326,-0.2147 1.1283,-0.8421 2.2094,-1.39 7.0882,-3.5921 7.6919,-9.9136 7.6914,-80.5788 -5e-4,-54.5731 -0.3793,-63.7785 -2.8866,-70.4846 -1.1387,-3.043 -2.6306,-4.6435 -5.9609,-6.3934 -2.9254,-1.5374 -3.9206,-2.3953 -3.5231,-3.0379 0.3656,-0.5941 3.5752,-1.1723 9.553,-1.7219 7.712,-0.709 58.8494,-0.7306 67.823,-0.027 14.3086,1.1191 23.6395,2.4815 32.8795,4.8006 7.6969,1.9317 11.5984,3.3454 18.2132,6.5995 14.2592,7.0149 23.941,17.634 31.3418,34.3757 5.1773,11.7115 6.8767,19.3354 6.8771,30.846 5e-4,10.8412 -1.443,19.7901 -4.972,30.8287 -5.0658,15.8466 -13.1703,29.7096 -23.7387,40.6079 -6.6637,6.8717 -13.523,11.8154 -19.9084,14.3492 -7.3675,2.9236 -21.2067,5.3532 -39.4806,6.932 -6.5554,0.5661 -37.0437,0.822 -43.8221,0.3655 z m 44.8319,-12.2924 c 21.0673,-1.7415 28.8227,-4.2058 39.004,-12.3953 6.4983,-5.2275 11.448,-11.3868 15.4413,-19.2157 13.8685,-27.1904 9.8053,-64.9522 -9.5937,-89.1671 -11.6723,-14.5694 -27.8022,-22.8929 -49.321,-25.4502 -4.5873,-0.5452 -37.2543,-1.6222 -37.6359,-1.2408 -0.073,0.075 -0.4249,13.745 -0.7763,30.3773 -0.823,38.9225 -0.9345,86.7461 -0.2194,94.2575 0.6996,7.3528 1.5482,12.5044 2.5119,15.2471 1.6537,4.7047 5.7443,7.2216 13.3274,8.199 3.5487,0.4574 18.3398,0.128 27.2627,-0.6118 z"
     id="path30"
     inkscape:connector-curvature="0" />
  <path
     style="fill:#7a5219;fill-opacity:1;stroke:#7a5219;stroke-width:0.40389174;stroke-opacity:1"
     d="m 3993.9229,1957.218 c -14.7189,-11.9109 -62.3867,-60.6004 -115.2358,-117.7072 l -9.2876,-10.0359 -0.1233,27.2015 c -0.2011,43.3011 0.896,63.7063 4.2254,78.6879 2.473,11.13 5.6196,16.5124 11.6184,19.8742 2.6718,1.4974 3.0854,2.0924 1.8968,2.7284 -2.8678,1.5349 -41.116,1.6921 -45.0435,0.1874 -1.1456,-0.4387 -0.6845,-1.3142 1.2758,-2.42 5.3706,-3.0282 6.3626,-3.7169 7.4049,-5.1394 3.3138,-4.5215 4.4247,-13.655 5.217,-42.8858 0.2285,-8.4412 0.7819,-39.5107 1.2297,-69.0434 0.4478,-29.5327 0.8572,-53.7397 0.9112,-53.7934 0.055,-0.054 4.6289,4.662 10.1671,10.4794 31.8157,33.419 65.6872,69.1298 90.6724,95.596 15.6232,16.5494 28.5608,30.151 28.75,30.2251 0.1919,0.073 0.297,-26.797 0.2422,-59.7144 l -0.1005,-59.8494 -8.28,-3.3173 c -4.554,-1.8245 -8.8077,-3.6635 -9.4525,-4.0867 l -1.173,-0.7694 1.3238,-0.5401 c 0.8138,-0.3322 4.5759,-0.6985 9.7678,-0.9512 9.4041,-0.4577 35.2876,-0.3098 36.3889,0.2079 1.5271,0.718 0.5017,1.9423 -5.2358,6.2507 -8.847,6.6429 -9.2025,9.4064 -9.6024,74.5715 -0.2284,37.4234 -0.5949,54.7766 -1.438,68.2576 -0.7782,12.4538 -1.6199,18.3772 -2.6101,18.3772 -0.3061,0 -1.8817,-1.0747 -3.5057,-2.3889 z"
     id="path32"
     inkscape:connector-curvature="0" />
  <path
     style="fill:#7a5219;fill-opacity:1;stroke:#7a5219;stroke-width:0.40389174;stroke-opacity:1"
     d="m 3717.7378,1959.5731 c -37.7981,-0.2879 -43.4688,-0.5296 -48.366,-2.0458 -1.7304,-0.5355 -1.6564,-1.22 0.2696,-2.4954 5.2449,-3.471 6.497,-9.3565 7.3437,-34.5208 0.5561,-16.5307 0.2468,-99.6298 -0.393,-106.103 -1.2877,-12.9937 -2.4561,-15.5633 -8.3508,-18.3638 -2.8157,-1.3377 -3.3997,-1.7635 -3.0305,-2.2085 1.2566,-1.514 11.4896,-2.0824 47.883,-2.6599 14.6613,-0.2326 28.9287,-0.5931 31.7056,-0.8012 5.9404,-0.445 5.9098,-0.4614 7.2875,3.9798 2.4629,7.9382 2.5795,18.8785 0.2376,22.4497 -0.9669,1.4757 -1.7031,1.6713 -3.3444,0.8887 -1.5642,-0.7459 -2.9474,-3.242 -2.962,-5.3455 -0.046,-4.0631 -4.8656,-6.5338 -15.7607,-8.0511 -5.4368,-0.7571 -24.9395,-1.2716 -27.0607,-0.7139 -1.3324,0.35 -1.4412,0.5096 -1.894,2.7714 -0.9007,4.5014 -1.3371,16.8593 -1.3371,37.8536 v 20.9733 l 3.1302,-0.2559 c 8.9731,-0.7275 30.4992,-1.9046 35.4411,-1.9384 6.5116,-0.046 8.5943,0.393 10.0438,2.1175 1.3156,1.5637 1.6053,3.6693 1.3754,9.9972 -0.1462,3.9787 -0.3838,5.6484 -1.0615,7.3948 -2.0659,5.3304 -5.4135,5.5639 -9.1614,0.6393 -1.6478,-2.1641 -3.2247,-2.9962 -7.6585,-4.0394 -4.957,-1.1666 -9.3954,-1.481 -20.9288,-1.481 h -11.257 l 0.1873,23.3251 c 0.1691,20.8077 0.2788,23.9789 1.0341,29.3897 0.9724,6.9795 2.521,12.7585 3.9065,14.5745 2.0558,2.6955 6.9758,4.9497 12.7759,5.854 4.4658,0.6959 14.2655,0.2513 18.5216,-0.844 8.6546,-2.2231 14.1362,-6.4526 14.1362,-10.9075 0,-2.7869 2.1811,-6.0582 4.039,-6.0582 3.3563,0 4.8254,5.7941 4.8387,19.0836 v 7.977 l -2.5242,-0.078 c -1.3882,-0.046 -18.9726,-0.2056 -39.0767,-0.3609 z"
     id="path34"
     inkscape:connector-curvature="0" />
  <path
     style="fill:#7a5219;fill-opacity:1;stroke:#7a5219;stroke-width:0.40389174;stroke-opacity:1"
     d="m 3502.06,1963.3996 c -11.4836,-1.3288 -19.3473,-2.8075 -27.826,-5.2321 -32.8165,-9.3848 -54.5705,-33.8665 -60.4506,-68.0295 -0.8824,-5.1256 -1.2278,-19.1997 -0.6059,-24.6832 4.2172,-37.1977 28.1025,-65.4755 62.5233,-74.0211 8.5477,-2.1221 17.1576,-3.0349 31.6096,-3.3512 29.3271,-0.6418 56.141,3.1882 58.1073,8.2999 1.3087,3.4027 0.8211,11.5564 -1.4166,23.6802 -0.7791,4.2207 -1.6345,8.8553 -1.9004,10.2993 l -0.4844,2.6252 -3.5793,-6.8661 c -5.0127,-9.6159 -7.2518,-12.7468 -11.5065,-16.0894 -8.5925,-6.7509 -19.3542,-9.4217 -39.6483,-9.84 -17.7795,-0.3664 -27.2169,1.2841 -38.7147,6.7706 -18.8045,8.9733 -28.4507,23.9277 -31.7673,49.2485 -0.8997,6.8694 -0.6201,19.208 0.5904,26.0513 2.6485,14.9738 8.5697,28.4511 17.567,39.985 5.2212,6.6935 14.1285,14.4461 21.7537,18.9338 15.3101,9.0106 34.0602,11.9872 52.3771,8.3152 7.0955,-1.4225 10.3924,-2.9963 11.7181,-5.5954 3.5002,-6.8607 5.4957,-29.3281 4.0527,-45.6302 -0.934,-10.5533 -2.3456,-12.6658 -10.1457,-15.1836 -6.9896,-2.2565 -8.7456,-3.6305 -7.1815,-5.6192 1.0894,-1.3845 4.8236,-2.5109 11.0253,-3.3252 7.1097,-0.9335 24.605,-0.5853 30.343,0.6041 7.6187,1.5792 10.4486,3.9522 7.3939,6.2008 -0.7348,0.5411 -1.9717,1.2242 -2.7495,1.5185 -1.8506,0.7005 -2.7545,1.5043 -3.6323,3.2293 -3.3636,6.6102 -5.4976,23.564 -6.4562,51.2941 -0.3747,10.8092 -0.7106,12.9304 -2.437,15.3545 -2.16,3.0337 -6.7085,5.1188 -16.7358,7.6717 -10.742,2.7344 -15.4171,3.2933 -28.697,3.4285 -6.4421,0.064 -12.3491,0.046 -13.1264,-0.046 z"
     id="path36"
     inkscape:connector-curvature="0" />
  <path
     style="fill:#7a5219;fill-opacity:1;stroke:#7a5219;stroke-width:0.40389174;stroke-opacity:1"
     d="m 3293.0308,1959.585 c -34.6839,-0.2559 -41.5067,-0.4894 -47.1231,-1.6208 -3.2059,-0.6457 -3.3101,-1.1314 -0.7206,-3.3668 6.4887,-5.6018 7.0366,-11.926 7.0357,-81.2213 -5e-4,-54.0357 -0.3747,-63.2701 -2.8436,-69.864 -1.1497,-3.073 -2.6851,-4.6487 -6.6327,-6.8072 -1.777,-0.9717 -3.2311,-2.0198 -3.2311,-2.3292 0,-0.8136 2.399,-1.4791 7.1486,-1.983 4.7285,-0.5017 42.0509,-1.1688 66.7094,-1.1925 l 16.5051,-0.014 -0.2102,10.8041 c -0.2194,11.4551 -0.5182,13.5532 -2.1312,15.0687 -0.8582,0.8061 -1.0766,0.844 -2.1952,0.3806 -0.6836,-0.2828 -2.8692,-2.2776 -4.8574,-4.4323 -3.1292,-3.3911 -4.0363,-4.1146 -6.7506,-5.3832 -3.8676,-1.808 -9.4104,-3.3136 -14.3423,-3.8959 -4.1903,-0.4947 -21.8363,-1.6448 -22.0447,-1.4367 -0.1554,0.1571 -2.9355,62.9049 -2.7915,63.0411 0.055,0.05 7.4579,-0.5392 16.4548,-1.311 8.9964,-0.7718 19.3564,-1.4358 23.0217,-1.476 9.5598,-0.1051 10.5377,0.5346 11.0609,7.224 0.5278,6.7505 -1.1903,15.7958 -3.465,18.2424 -1.105,1.1885 -2.5,1.794 -3.3664,1.4617 -0.8897,-0.3427 -1.8059,-2.2961 -1.8077,-3.8575 0,-5.3107 -7.3185,-8.0977 -24.2317,-9.2341 -7.3176,-0.4921 -13.4517,-0.2239 -14.807,0.6475 -1.932,1.2415 -2.5608,6.4933 -2.5603,21.3794 9e-4,17.7534 1.5362,34.5405 3.9951,43.6708 0.7279,2.7029 2.0444,4.2273 5.0598,5.8572 8.6017,4.6504 22.1069,4.1277 33.3534,-1.2904 4.1486,-1.9983 4.3798,-2.1842 10.6021,-8.5272 l 6.3613,-6.4841 v 14.1888 14.1888 l -2.5242,-0.082 c -1.3883,-0.046 -18.7912,-0.2011 -38.6727,-0.3473 z"
     id="path38"
     inkscape:connector-curvature="0" />
  <path
     style="fill:#7a5219;fill-opacity:1;stroke:#7a5219;stroke-width:0.40389174;stroke-opacity:1"
     d="m 3275.7412,1773.4696 c -0.9925,-0.6295 0,-2.6271 2.5228,-5.1052 3.0853,-3.0245 7.3176,-5.9523 12.7722,-8.836 11.0615,-5.8477 19.961,-7.6414 24.7654,-4.9912 2.2775,1.2564 2.8784,2.6107 2.2747,5.1269 -0.6584,2.745 -1.6313,3.4687 -6.2785,4.6701 -2.2139,0.5723 -8.6683,2.5764 -14.3432,4.4536 -13.5299,4.4753 -19.8801,5.8445 -21.7134,4.6818 z"
     id="path40"
     inkscape:connector-curvature="0" />
  <path
     style="fill:#7a5219;fill-opacity:1;stroke:#7a5219;stroke-width:0.40389174;stroke-opacity:1"
     d="m 3060.3891,1959.7723 c 0,-0.1325 1.6126,-2.5392 3.583,-5.3513 1.9708,-2.8121 4.0787,-6.0967 4.6847,-7.2984 2.2308,-4.4261 3.7552,-12.8436 4.6874,-25.885 0.6566,-9.1829 0.9742,-85.1947 0.4067,-97.6719 -0.8989,-19.8225 -2.0646,-23.1189 -9.5512,-27.014 -1.7831,-0.9276 -3.5757,-2.0557 -3.9842,-2.507 -0.7275,-0.8039 -0.7192,-0.8293 0.4204,-1.2647 2.1573,-0.8236 13.9964,-1.2658 28.8304,-1.0768 20.051,0.2554 20.5857,0.4437 15.4381,5.4343 -3.6012,3.4913 -4.1454,4.371 -5.3157,8.5939 -2.1705,7.8338 -2.8463,24.2124 -2.8404,68.8565 0,49.7803 0.7375,61.5285 4.1944,67.4278 1.2237,2.0873 2.6845,3.2804 6.0929,4.9748 6.2923,3.1283 12.3112,4.3561 19.6855,4.0157 5.838,-0.2696 8.5171,-0.9276 13.4335,-3.3019 5.4345,-2.6243 8.401,-5.3706 14.7225,-13.6286 4.1715,-5.4496 5.5049,-6.9475 5.6086,-6.3014 0.1142,0.6996 -1.9356,29.4473 -2.1152,29.6868 -0.069,0.091 -92.4102,2.5557 -95.6619,2.5525 -1.2776,-10e-4 -2.3227,-0.1097 -2.3227,-0.2422 z"
     id="path42"
     inkscape:connector-curvature="0" />
  <path
     style="fill:#7a5219;fill-opacity:1;stroke:#7a5219;stroke-width:0.40389174;stroke-opacity:1"
     d="m 2710.6925,1959.1984 c -5.5757,-0.4853 -5.3454,-1.2721 1.481,-5.0548 6.5531,-3.6309 11.9758,-8.338 14.4296,-12.5246 0.5657,-0.9655 2.0864,-4.8098 3.3801,-8.544 3.4582,-9.984 8.1401,-22.8503 18.1976,-50.0051 4.9364,-13.3288 11.236,-30.5041 13.9996,-38.1679 12.0439,-33.4041 15.1987,-41.3512 18.544,-46.7192 1.9809,-3.1782 3.5537,-4.5751 5.1508,-4.5751 0.8079,0 1.3896,0.561 2.8267,2.7263 6.6897,10.0788 16.9241,33.2221 36.2129,81.889 14.7997,37.3402 19.5699,48.7151 24.4748,58.3623 5.9202,11.6445 9.3136,15.0688 18.2725,18.4411 3.9216,1.476 5.8815,2.5667 5.4282,3.02 -0.6631,0.6631 -5.1394,1.0675 -14.8487,1.3416 -16.4155,0.4634 -28.7673,-0.949 -30.3237,-3.4668 -0.1554,-0.2559 -0.5264,-1.731 -0.8225,-3.2832 -1.2183,-6.3932 -5.6438,-19.8075 -14.4899,-43.9213 -2.1601,-5.8864 -4.1071,-11.2031 -4.3274,-11.8135 l -0.4021,-1.1109 h -24.1764 -24.1768 l -2.4136,7.5731 c -7.6901,24.1297 -9.7386,31.3674 -10.546,37.2589 -0.7745,5.6529 0,8.7698 3.4253,13.4736 0.7818,1.0793 1.422,2.3017 1.422,2.7166 0,2.2637 -4.5891,2.8093 -23.0116,2.7344 -7.8915,-0.046 -15.8603,-0.1919 -17.7082,-0.3519 z m 90.2095,-73.2004 c -0.1142,-0.4999 -1.0231,-5.2865 -2.0238,-10.6364 -3.0922,-16.5271 -5.9207,-25.3067 -12.0252,-37.3258 -2.2002,-4.3318 -4.1372,-8.0181 -4.3049,-8.1918 -0.3199,-0.3299 -5.0671,11.4749 -7.5337,18.7274 -3.6479,10.726 -7.2866,27.906 -6.9686,32.9014 0.329,5.1467 1.1177,5.3687 19.2194,5.4058 l 13.8411,0.046 z"
     id="path44"
     inkscape:connector-curvature="0" />
  <path
     style="fill:#7a5219;fill-opacity:1;stroke:#7a5219;stroke-width:0.40389174;stroke-opacity:1"
     d="m 2557.8487,1952.3323 c 5.3815,-10.7521 6.4147,-14.1541 7.7851,-25.6277 0.5725,-4.793 0.6753,-9.9136 0.6662,-33.1335 0,-45.0347 -1.3206,-73.8844 -3.7995,-84.1184 -1.3992,-5.7765 -2.8263,-7.9841 -7.8998,-12.222 -3.8827,-3.2427 -4.2108,-4.0879 -1.9041,-4.9043 2.1358,-0.7561 43.1161,-0.7817 45.5923,-0.027 3.1123,0.9465 3.0702,1.3936 -0.4387,4.6514 -3.4701,3.2232 -4.2611,4.4991 -5.45,8.7898 -2.2409,8.0856 -2.8432,23.3723 -2.8414,72.0798 0,56.2964 0.6498,64.6289 5.297,68.1734 2.4904,1.8996 12.9002,4.3584 20.9467,4.9475 6.8643,0.5026 14.1271,-0.9596 19.2097,-3.8672 3.9709,-2.2724 6.873,-5.1302 12.9116,-12.717 3.2768,-4.1167 6.0076,-7.4346 6.0679,-7.3733 0.1005,0.1005 -2.685,30.2999 -2.8093,30.4772 -0.064,0.087 -92.0035,2.559 -95.0569,2.5544 l -2.1225,-0 z"
     id="path46"
     inkscape:connector-curvature="0" />
  <path
     style="fill:#7a5219;fill-opacity:1;stroke:#7a5219;stroke-width:0.40389174;stroke-opacity:1"
     d="m 1929.5466,1965.0012 c -5.5552,-0.5149 -11.22,-2.1307 -14.4575,-4.1239 -3.8553,-2.373 -7.2761,-10.307 -9.1674,-21.2629 -0.7074,-4.1002 -0.8348,-11.4293 -0.233,-13.4686 0.8421,-2.8555 2.3624,-3.2485 4.6833,-1.2105 2.2655,1.9891 3.7415,4.4388 5.4505,9.0458 2.1147,5.7 3.8457,8.8425 6.1286,11.1254 3.4852,3.4852 7.797,4.9744 16.3959,5.6616 11.692,0.9345 20.1319,-1.8301 27.1644,-8.8987 6.7405,-6.7752 9.0129,-15.6514 6.1368,-23.9739 -3.2768,-9.4836 -11.2218,-19.2262 -37.459,-45.9327 -14.0417,-14.2926 -17.0795,-18.3974 -19.181,-25.9184 -2.4374,-8.7208 -1.5413,-29.4862 1.6176,-37.5012 2.7851,-7.0656 6.9945,-11.9591 12.7942,-14.8728 8.0848,-4.0619 19.7142,-5.5104 36.5529,-4.5528 9.113,0.5182 13.4005,1.0452 16.2784,2.0008 1.7872,0.5934 2.0865,0.8602 2.5658,2.2873 1.0153,3.024 1.0482,10.9979 0.082,20.1946 -0.4894,4.665 -1.0191,8.9111 -1.1772,9.4359 -0.2376,0.7876 -0.7014,-0.023 -2.6558,-4.6447 -4.7463,-11.2229 -6.9886,-14.6235 -10.8434,-16.4439 -2.9428,-1.3896 -6.0743,-1.8776 -12.0494,-1.8776 -10.3399,0 -17.6991,2.735 -23.8163,8.8512 -2.1549,2.1545 -3.4733,3.9 -4.4429,5.8823 -1.3032,2.6641 -1.3786,3.0518 -1.3786,7.0681 0,3.7048 0.1234,4.4823 0.9655,6.0669 3.5834,6.7448 12.3985,17.0925 28.7299,33.725 10.4884,10.6817 13.9046,14.4333 18.2059,19.9926 10.8201,13.9854 15.1534,25.9703 14.0626,38.8957 -0.6392,7.5803 -3.7378,17.031 -7.1992,21.9601 -8.0058,11.3996 -26.7582,20.7054 -45.0504,22.3564 -4.0029,0.361 -5.928,0.3884 -8.7049,0.1325 z"
     id="path48"
     inkscape:connector-curvature="0" />
  <path
     style="fill:#7a5219;fill-opacity:1;stroke:#7a5219;stroke-width:0.40389174;stroke-opacity:1"
     d="m 1668.8768,1959.1779 c -1.6665,-0.192 -3.0455,-0.5863 -3.433,-0.9788 -0.7124,-0.7206 -0.8682,-0.5461 5.2193,-5.8426 6.5769,-5.722 7.2554,-12.547 6.5097,-65.4501 -0.5817,-41.2685 0,-72.0758 1.5847,-84.0969 0.3107,-2.3621 2.6869,-11.8985 4.1455,-16.6438 0.064,-0.2056 9.0033,9.6089 19.8664,21.8102 10.8631,12.2012 27.3074,30.6354 36.5428,40.965 22.8449,25.5511 33.999,38.1378 45.6371,51.4963 10.2947,11.8163 13.9165,15.609 16.8012,17.5936 2.3538,1.6194 2.8578,1.5371 3.2421,-0.5292 0.4432,-2.3903 0.297,-39.423 -0.2285,-57.4539 -1.2009,-41.2283 -2.638,-55.59 -5.9253,-59.2227 -0.3427,-0.3797 -1.5591,-0.8116 -2.7111,-0.9634 -2.7353,-0.3605 -5.4062,-1.546 -7.0357,-3.1227 -1.8045,-1.7459 -1.7016,-2.6008 0.425,-3.5419 3.3161,-1.467 7.1554,-1.8098 20.2731,-1.8103 13.1122,-5e-4 16.209,0.3076 18.0455,1.7945 l 0.9057,0.7333 -1.29,2.5728 c -1.4344,2.8606 -2.1253,6.2788 -3.0945,15.3139 -1.5915,14.8406 -2.6526,36.2043 -3.4687,69.8549 -1.0793,44.5102 -3.2133,75.486 -5.2892,76.7687 -3.6872,2.2788 -25.2918,-18.9032 -70.2659,-68.8927 -7.8024,-8.673 -16.0513,-17.9578 -45.9277,-51.6983 -2.754,-3.1099 -5.1521,-5.7088 -5.329,-5.7752 -0.4432,-0.1668 -0.069,79.4761 0.4296,91.1983 0.9454,22.2325 3.243,28.9826 11.135,32.7113 1.4343,0.6777 2.5136,1.3846 2.3985,1.5706 -0.9112,1.4741 -30.0683,2.6946 -39.1653,1.6391 z"
     id="path50"
     inkscape:connector-curvature="0" />
  <path
     style="fill:#7a5219;fill-opacity:1;stroke:#7a5219;stroke-width:0.40389174;stroke-opacity:1"
     d="m 1573.2054,1945.8783 c -10.0136,-33.5215 -12.3212,-39.7178 -16.6033,-44.582 -2.2661,-2.5749 -5.7115,-4.1816 -10.2028,-4.7592 -5.9144,-0.7603 -25.4828,0.5735 -30.5509,2.0828 -6.3215,1.8817 -8.1758,4.7062 -12.6804,19.3126 -2.9327,9.5092 -3.7347,12.5186 -4.4717,16.787 -1.2448,7.2084 -0.6288,11.1981 2.5955,16.8099 2.3894,4.1587 2.7316,5.3047 1.8492,6.1871 -1.2895,1.2895 -3.6227,1.5788 -14.3537,1.7789 -15.8494,0.2971 -28.8675,-0.6178 -28.034,-1.9667 0.1325,-0.2102 2.2811,-1.348 4.7788,-2.526 6.6797,-3.1507 9.033,-5.5734 12.7969,-13.1744 4.7715,-9.6357 9.1359,-21.4228 25.1968,-68.0483 9.3236,-27.0671 11.2163,-32.4058 16.2528,-45.8415 7.0344,-18.7663 14.3725,-35.7556 16.0427,-37.1416 0.9724,-0.8073 2.2002,-0.074 4.0244,2.4036 3.2475,4.4118 4.7276,7.8581 11.8839,27.6699 4.4041,12.1913 26.4017,70.717 33.0942,88.0483 6.109,15.8196 11.4119,27.2544 15.6392,33.7248 3.1722,4.8556 7.7252,9.0746 12.8248,11.8835 2.388,1.316 4.6385,2.7198 5.0009,3.1201 1.2785,1.4129 -0.7549,1.6747 -14.1902,1.8246 -6.8863,0.078 -15.7173,0.1873 -19.6247,0.2422 l -7.1047,0.1005 z m -35.2278,-59.5856 c 7.3666,-1.3973 9.8245,-2.8934 10.6242,-6.4667 1.1254,-5.0297 -2.3871,-17.5524 -10.8152,-38.5591 -2.1316,-5.3134 -2.4483,-5.8678 -3.4125,-5.9796 -2.5968,-0.3011 -6.4092,7.2942 -12.1096,24.1239 -2.9784,8.7927 -4.9936,15.5176 -5.7956,19.3386 -0.5538,2.6399 -0.5542,3.0749 0,4.1359 0.7211,1.3946 2.925,2.6092 6.1543,3.392 3.1589,0.7654 11.3616,0.7736 15.3599,0 z"
     id="path52"
     inkscape:connector-curvature="0" />
  <path
     style="fill:#7a5219;fill-opacity:1;stroke:#7a5219;stroke-width:0.40389174;stroke-opacity:1"
     d="m 1291.6882,1962.0247 c -13.9631,-1.1296 -26.113,-3.4925 -28.3452,-5.5127 -0.9596,-0.8687 -0.9276,-1.4554 0.1326,-2.3958 2.4629,-2.1874 3.6286,-7.9651 4.8414,-23.9931 0.6383,-8.4395 0.9545,-97.137 0.3838,-108.0369 -0.7023,-13.438 -1.8666,-19.1828 -4.4955,-22.1769 -0.6306,-0.7184 -2.6188,-2.0983 -4.4173,-3.0665 -5.1549,-2.7744 -4.1674,-3.5888 5.4701,-4.5111 7.8089,-0.7473 61.7031,-0.7631 70.0502,-0.018 23.162,2.0606 36.7983,5.8197 47.8264,13.1847 12.8133,8.5572 23.9442,25.9521 28.7417,44.9182 2.1162,8.3657 2.7349,13.6681 2.7486,23.568 0,9.0636 -0.3564,12.9884 -1.9955,21.1431 -4.0865,20.3453 -14.5059,39.0328 -27.8448,49.9398 -11.7875,9.6384 -24.5821,13.6966 -52.3036,16.5891 -5.3467,0.5575 -35.134,0.8285 -40.7934,0.3702 z m 47.2556,-11.9123 c 14.6535,-2.0033 25.6085,-6.9132 33.8848,-15.1859 10.2759,-10.2713 16.9839,-25.1314 19.4894,-43.1732 0.6896,-4.9634 0.6841,-18.9059 0,-23.6276 -4.0262,-27.4281 -17.9015,-46.3178 -43.2856,-58.9287 -9.5192,-4.7293 -18.6468,-7.4277 -28.2839,-8.3618 -4.0198,-0.3898 -6.1958,-0.3281 -15.5496,0.4391 -5.982,0.4906 -10.934,0.9475 -11.0043,1.0154 -0.3565,0.3445 -1.7735,77.2849 -1.8283,99.3594 -0.069,27.4335 0.1599,31.393 2.2011,38.0165 1.0894,3.5377 1.6793,4.6664 3.4866,6.6669 2.3213,2.569 5.2266,3.7548 10.8087,4.4105 4.4589,0.5241 24.7585,0.1005 30.0903,-0.6301 z"
     id="path54"
     inkscape:connector-curvature="0" />
  <path
     style="fill:#7a5219;fill-opacity:1;stroke:#7a5219;stroke-width:0.40389174;stroke-opacity:1"
     d="m 995.76935,1959.5832 c -21.4343,-0.3427 -36.2788,-1.1835 -37.2014,-2.1066 -0.064,-0.064 0.297,-1.29 0.7997,-2.7275 2.0864,-5.9669 12.7567,-26.1107 15.6081,-29.4661 7.9852,-9.3963 23.9611,-33.6512 28.10015,-42.6623 3.1283,-6.8104 5.9664,-11.4873 17.127,-28.2273 16.4863,-24.7269 24.2125,-40.3886 24.2308,-49.1194 0,-2.8653 -0.8902,-4.1188 -3.3947,-4.7496 -2.2871,-0.5758 -18.7652,-0.6003 -26.1052,-0.041 -15.76755,1.2064 -27.13235,3.8806 -34.61855,8.1462 -5.0667,2.887 -7.9894,6.034 -12.8207,13.8047 l -4.2383,6.8167 v -10.6536 c 0,-5.8595 0.1874,-11.9063 0.4113,-13.4373 1.2635,-8.7412 5.8568,-11.7567 20.1803,-13.2497 6.9768,-0.7272 66.57735,-0.7233 75.52765,0 10.1027,0.822 15.3156,1.8571 16.9305,3.3618 0.828,0.7715 0.828,0.7759 0.046,2.8354 -2.4241,6.3792 -18.2388,33.6636 -42.2186,72.8381 -21.5371,35.1834 -33.7893,56.2635 -39.43765,67.8541 -2.6503,5.4377 -2.8541,6.4983 -1.359,7.0667 5.3784,2.0449 47.17065,1.38 65.23115,-1.0382 6.2813,-0.8408 8.1959,-1.7656 12.2998,-5.9399 2.7883,-2.8363 3.6748,-4.1098 6.0843,-8.7424 1.5513,-2.982 3.0319,-5.4911 3.2905,-5.5757 0.7672,-0.2513 1.0382,4.2497 0.8467,14.0613 -0.1416,7.2345 -0.3153,9.4297 -0.8696,10.9253 -1.9927,5.381 -7.0905,7.9697 -18.2186,9.2519 -3.6579,0.4204 -34.1919,1.2054 -43.2162,1.1094 -2.6658,-0.046 -13.0258,-0.1827 -23.02205,-0.3427 z"
     id="path56"
     inkscape:connector-curvature="0" />
  <path
     style="fill:#7a5219;fill-opacity:1;stroke:#7a5219;stroke-width:0.40389174;stroke-opacity:1"
     d="m 849.96435,1959.5777 c -31.632,-0.2513 -38.685,-0.478 -43.6201,-1.4083 -1.9772,-0.3747 -3.4331,-1.0487 -3.4331,-1.5939 0,-0.2787 0.4999,-0.8275 1.1109,-1.215 3.0711,-1.9485 4.4438,-3.9965 5.5611,-8.2983 2.218,-8.5372 2.7458,-25.1135 2.5013,-78.5513 -0.201,-43.9548 -0.3884,-49.6382 -1.926,-58.9474 -1.0565,-6.3872 -2.2592,-8.9369 -5.8545,-12.4107 -2.3844,-2.3034 -2.6892,-2.7548 -2.2317,-3.3054 1.4791,-1.7825 7.8974,-2.2286 36.1795,-2.515 25.2717,-0.2559 36.6608,0.092 41.1065,1.2559 5.0173,1.3134 5.7109,2.5963 5.4432,10.0612 -0.2194,6.1428 -1.2091,9.9115 -3.1914,12.1693 -1.6628,1.8937 -3.6579,1.9875 -4.5745,0.2153 -0.3382,-0.6554 -0.6169,-1.7005 -0.6183,-2.3224 0,-3.2077 -1.9644,-6.3258 -4.9191,-7.8331 -1.231,-0.6279 -3.2224,-0.924 -9.3277,-1.3869 -15.0392,-1.1404 -19.8294,-0.7297 -22.3979,1.9203 -2.6417,2.7253 -3.1041,5.7047 -3.9348,25.3538 -0.3336,7.886 -0.8084,18.7576 -1.0551,24.1591 -0.2468,5.4016 -0.361,9.9099 -0.2514,10.0186 0.192,0.1919 40.0897,-2.4218 44.009,-2.8811 l 1.9188,-0.2239 v 9.808 c 0,10.2764 -0.457,17.1019 -1.1616,17.8065 -0.68,0.68 -1.7872,-0.1188 -4.3036,-3.1059 -5.8535,-6.9498 -11.9077,-8.725 -29.7635,-8.7273 l -10.4002,-0 v 20.0935 c 0,11.0518 0.1874,22.6383 0.4204,25.7483 1.2123,16.405 4.3274,23.1839 11.9681,26.0426 3.4495,1.2909 9.4232,1.7862 14.9829,1.2433 10.5328,-1.0281 15.4304,-4.383 21.8533,-14.9674 1.5865,-2.6147 3.1689,-4.9904 3.5171,-5.2792 1.4719,-1.2214 1.672,0.4826 2.006,17.0932 l 0.2514,12.4195 -2.5594,-0.078 c -1.4074,-0.046 -18.1894,-0.2011 -37.2936,-0.3564 z"
     id="path58"
     inkscape:connector-curvature="0" />
  <path
     style="fill:#7a5219;fill-opacity:1;stroke:#7a5219;stroke-width:0.40389174;stroke-opacity:1"
     d="m 728.79685,1959.1477 c -6.7693,-0.855 -13.5746,-3.4262 -18.6463,-7.0457 -7.6988,-5.4935 -14.6554,-13.7853 -28.6061,-34.0955 -8.4043,-12.2357 -11.22,-15.9051 -15.2485,-19.8705 -5.3614,-5.2778 -10.3719,-7.0905 -18.5147,-6.6984 -6.1565,0.297 -7.6046,1.5728 -8.7091,7.6758 -0.4816,2.6618 -0.605,7.2523 -0.6063,22.5277 0,10.9765 0.1827,20.742 0.4249,22.8238 0.9975,8.4733 2.8158,10.9518 9.0513,12.3373 1.5532,0.3427 2.1555,0.6301 1.7776,0.8417 -1.8836,1.0542 -28.5696,1.9361 -37.1237,1.2273 -7.4602,-0.6187 -8.3362,-1.3516 -4.5882,-3.8397 4.744,-3.1498 6.0601,-7.8774 7.1604,-25.7163 0.6808,-11.0345 0.6776,-92.7536 0,-104.6078 -0.7357,-12.7919 -1.7867,-19.239 -3.7845,-23.2117 -0.4524,-0.8952 -2.0709,-2.8352 -3.6017,-4.3109 -1.9228,-1.8537 -2.7065,-2.8825 -2.5361,-3.3277 0.6485,-1.6889 6.5344,-2.2105 28.437,-2.5201 26.654,-0.3765 38.3935,0.4099 45.6527,3.0593 3.8384,1.4008 6.2725,2.8316 10.6903,6.2841 6.5916,5.1515 10.6018,9.894 13.5103,15.978 2.6393,5.521 3.3709,8.9 3.4043,15.7229 0.055,11.1619 -2.8331,19.6634 -11.1972,32.9694 -5.817,9.2541 -8.4463,15.0195 -9.0006,19.7348 -0.297,2.5457 0.2102,3.6017 5.6333,11.7167 13.1465,19.6653 32.9257,41.0575 47.0322,50.8664 2.7682,1.9252 9.3671,5.2422 22.7123,11.4165 1.2429,0.5753 -28.8172,0.6315 -33.3213,0.064 z m -63.2087,-82.3065 c 7.6763,-1.9517 12.0027,-5.2595 14.9537,-11.4325 6.9704,-14.5813 4.4983,-38.8408 -5.2686,-51.7007 -2.7499,-3.6207 -7.7632,-7.5631 -12.7147,-9.9987 -5.3865,-2.6496 -8.3005,-3.385 -13.5303,-3.4139 -3.7639,-0.023 -4.4955,0.096 -6.5052,1.0384 -2.4593,1.1532 -3.975,2.8392 -4.8546,5.4004 -0.8861,2.5795 -0.6653,30.9685 0.3975,51.1901 0.4757,9.0504 0.865,17.2947 0.865,18.3205 v 1.8658 l 11.6121,-0.1965 c 10.1525,-0.1737 12.0434,-0.3062 15.0451,-1.0711 z"
     id="path60"
     inkscape:connector-curvature="0" />
  <path
     style="fill:#7a5219;fill-opacity:1;stroke:#7a5219;stroke-width:0.40389174;stroke-opacity:1"
     d="m 454.91805,1959.1952 c -5.3107,-0.5602 -5.8069,-1.6688 -2.4392,-5.4446 4.628,-5.1877 5.8901,-10.0195 7.1732,-27.4646 0.2788,-3.8013 0.5177,-27.6291 0.6384,-63.9572 l 0.1919,-57.8993 -16.2926,0.2006 c -14.2226,0.1751 -16.8674,0.3076 -20.8192,1.0411 -6.8021,1.2629 -10.5912,2.6428 -13.0724,4.7608 -3.8261,3.266 -5.4848,3.658 -6.979,1.6494 -1.6569,-2.2275 -1.1954,-8.8497 1.1624,-16.6833 1.6295,-5.4141 3.6666,-7.6431 6.9836,-7.641 1.0405,7e-4 3.6186,0.313 5.7288,0.694 9.5179,1.7183 27.5697,2.3221 77.9089,2.606 l 42.9726,0.2427 -0.2559,9.1309 c -0.2696,9.7085 -0.5337,11.7609 -1.927,14.9995 -1.0615,2.4678 -1.9832,3.0773 -3.6241,2.3975 -1.6971,-0.7029 -2.7522,-2.707 -3.168,-6.0166 -0.2011,-1.5883 -0.6375,-3.3078 -0.9738,-3.8209 -1.7199,-2.6248 -7.3286,-3.4159 -19.3546,-2.7299 -12.4282,0.7089 -22.2522,2.2653 -24.8367,3.9349 l -0.9089,0.587 v 55.223 c 0,66.3183 0.3291,75.5391 2.8455,82.2636 1.1967,3.1982 2.9108,4.9501 6.8958,7.0471 3.4482,1.8145 4.7898,2.7431 4.7898,3.3156 0,0.7252 -3.4587,1.2155 -11.1071,1.5747 -9.3264,0.4387 -27.3481,0.4295 -31.5438,0 z"
     id="path62"
     inkscape:connector-curvature="0" />
  <path
     style="fill:#7a5219;fill-opacity:1;stroke:#7a5219;stroke-width:0.40389174;stroke-opacity:1"
     d="m 321.56545,1959.1683 c -3.6496,-1.6341 -10.5825,-7.9971 -22.4047,-20.5633 -11.725,-12.4634 -18.5308,-19.9606 -57.193,-63.0072 -43.0128,-47.8907 -41.3331,-46.034 -41.4966,-45.8703 -0.1371,0.138 1.2867,36.5974 2.5424,65.0549 1.5427,34.9737 3.0132,45.7729 7.1646,52.6262 0.7133,1.1771 3.0702,3.7808 5.2385,5.7864 2.3907,2.2116 3.9416,3.9558 3.9416,4.4333 0,1.6706 -1.2465,1.7771 -20.8004,1.7757 -25.5322,-10e-4 -26.7801,-0.3427 -20.3855,-5.5501 4.633,-3.7739 6.167,-9.0705 7.282,-25.1446 0.233,-3.3321 0.5844,-25.9599 0.7855,-50.2843 0.4628,-55.9658 1.3192,-78.8117 3.2749,-87.3416 0.3656,-1.5834 0.5973,-1.9185 1.3403,-1.9185 5.4678,0 34.1562,31.1788 110.2911,119.8676 6.8867,8.0218 12.6571,14.5945 12.8239,14.6064 0.4387,0.046 0.361,-63.0606 -0.1005,-80.1506 -0.6334,-23.4142 -1.6981,-38.1213 -2.9757,-41.0991 -1.1552,-2.6924 -5.9509,-6.0786 -10.8384,-7.6527 -4.1496,-1.3365 -3.8151,-1.5643 3.5162,-2.393 6.3676,-0.7199 37.6295,-0.7452 38.8797,-0.032 1.3512,0.7715 0.6813,1.6634 -3.6611,4.876 -6.0838,4.5013 -7.5863,6.5948 -8.8872,12.3848 -1.7278,7.6913 -2.2738,22.2437 -2.2944,61.1781 0,38.1555 -0.7229,65.0864 -2.0553,78.7588 -0.4479,4.5937 -1.3864,9.6563 -1.8827,10.1525 -0.1691,0.1691 -1.1168,-0.05 -2.1033,-0.4939 z"
     id="path64"
     inkscape:connector-curvature="0" />
  <path
     style="fill:#7a5219;fill-opacity:1;stroke:#7a5219;stroke-width:0.40389174;stroke-opacity:1"
     d="m 43.059548,1959.5813 c -16.0426,-0.3472 -21.8317,-1.0615 -22.9357,-2.8312 -0.297,-0.4748 -0.087,-1.0602 0.8175,-2.3113 3.9553,-5.4601 5.3436,-27.1164 5.3404,-83.2839 0,-46.3966 -0.7613,-60.326 -3.7132,-68.2149 -0.6471,-1.7298 -1.539,-2.9314 -3.8398,-5.1732 -1.6482,-1.606 -2.8797,-3.1092 -2.7367,-3.3405 1.5761,-2.5498 13.7154,-3.4462 68.4664,-5.0555 4.1094,-0.1206 9.0623,-0.3212 11.0061,-0.4451 l 3.5341,-0.2252 v 9.7407 c 0,10.2868 -0.4729,14.3485 -2.0229,17.3876 -1.0017,1.9628 -1.7954,2.5594 -3.0026,2.2564 -1.6903,-0.424 -3.0602,-2.6893 -3.4893,-5.7693 -0.457,-3.2768 -1.216,-4.4671 -3.6232,-5.6763 -3.2338,-1.6245 -5.2476,-1.8091 -21.8902,-2.007 l -16.0546,-0.191 v 30.1255 30.1256 h 2.7262 c 1.4997,0 7.361,-0.2742 13.0259,-0.5973 16.9812,-0.9701 30.1377,-0.695 31.7745,0.6635 0.7407,0.6146 0.6946,5.2522 -0.091,9.1482 -1.2602,6.2465 -3.985,13.8159 -4.9734,13.8159 -0.1874,0 -0.5392,-1.2269 -0.7855,-2.7262 -0.3884,-2.372 -0.6507,-2.9167 -2.0115,-4.1925 -2.7851,-2.611 -4.6742,-2.8582 -23.4489,-3.0675 l -16.2972,-0.1828 0.1919,24.9756 c 0.1965,25.5701 0.4204,29.7649 1.9242,35.8515 1.6094,6.517 4.0701,9.6627 8.7315,11.1615 4.9967,1.6066 17.7004,1.0551 25.1624,-1.0921 6.4659,-1.8612 9.633,-4.5156 13.1452,-11.0185 5.125102,-9.4895 7.802402,-8.9846 7.329502,1.3823 -0.1828,3.9709 -1.3567,13.3462 -2.4936,19.892 l -0.2285,1.3123 -23.104402,-0.069 c -12.7073,-0.046 -29.1023,-0.201 -36.4327,-0.3609 z"
     id="path66"
     inkscape:connector-curvature="0" />
  <path
     style="fill:#221e1f;fill-opacity:1;stroke:#221e1f;stroke-width:1.14237833;stroke-opacity:1"
     d="m 2282.8175,2161.3464 c -11.3439,-7.6339 -25.4792,-20.4568 -59.0203,-53.541 l -33.5864,-33.129 0.7224,-116.5226 c 0.3976,-64.0874 1.0524,-166.4022 1.4559,-227.3661 l 0.7334,-110.8435 29.8229,-15.2695 c 56.5075,-28.9322 91.5269,-47.2718 97.4047,-51.0106 14.5255,-9.2401 68.3695,-36.8411 69.5553,-35.6551 1.4832,1.4831 2.7097,161.5898 2.7563,359.7296 l 0.05,205.1798 -30.5587,25.1461 c -16.8071,13.8305 -36.7274,30.4215 -44.2671,36.8695 -12.8998,11.0313 -22.6187,18.115 -27.0922,19.7454 -1.2333,0.4478 -4.1907,-0.7869 -7.9743,-3.333 z"
     id="path68"
     inkscape:connector-curvature="0" />
  <path
     style="fill:#221e1f;fill-opacity:1;stroke:#221e1f;stroke-width:2.28475666;stroke-opacity:1"
     d="m 1088.8676,1563.2388 c -22.9581,-6.4843 -36.9966,-37.3607 -44.4924,-97.8585 -4.3945,-35.4655 -5.1544,-38.8409 -8.7465,-38.8409 -1.5879,0 -22.3879,12.5025 -46.22245,27.7833 -131.1181,84.0622 -140.4947,89.6441 -164.3997,97.8686 -20.061,6.902 -32.6272,6.124 -45.9738,-2.8462 -13.7575,-9.2462 -26.5877,-26.0238 -31.6512,-41.3896 -11.4631,-34.7836 -1.8557,-140.663 20.7095,-228.2292 15.7159,-60.9889 64.8871,-197.9642 79.7558,-222.1751 3.0867,-5.0265 8.0807,-14.2956 11.0975,-20.5979 10.7073,-22.3676 25.9293,-32.781 92.8379,-63.51036 49.78385,-22.8646 161.04555,-77.4888 199.57255,-97.9808 26.0928,-13.8785 27.6647,-14.3965 43.4104,-14.303 18.8981,0.1124 33.2135,6.312 58.5473,25.3557 19.4926,14.653 60.9948,56.1605 70.3536,70.3629 8.6665,13.1526 8.6396,13.6034 -3.2585,53.83586 -40.6513,137.4621 -63.4422,224.1259 -68.3503,259.91 -1.8516,13.4983 -4.0112,43.7631 -4.7994,67.2552 -1.6071,47.8989 -0.9866,50.5 13.7117,57.4748 18.1853,8.6294 47.9347,2.2911 103.0202,-21.949 l 27.2265,-11.9808 11.0057,-37.6985 c 11.5549,-39.5797 50.5063,-192.6716 64.7029,-254.303 13.3567,-57.9873 11.108,-63.1745 -28.4228,-65.5589 -12.5177,-0.755 -23.4572,-2.07 -24.3094,-2.9223 -2.335,-2.33496 5.6274,-21.46236 12.1723,-29.24056 7.6644,-9.1087 13.5317,-11.9134 52.8821,-25.2777 36.5876,-12.426 90.5609,-37.7529 135.1145,-63.4026 33.9076,-19.5207 49.3407,-24.8738 58.7841,-20.3899 17.9116,8.5052 18.0984,31.0683 0.8184,98.8659 -6.3923,25.08 -11.6226,46.92796 -11.6226,48.55106 0,1.6231 1.428,2.9511 3.1731,2.9511 6.7574,0 147.2018,-72.22076 188.7465,-97.05926 28.2743,-16.9045 92.7277,-48.7705 102.2808,-50.5682 10.3819,-1.9536 19.6873,2.5283 30.3137,14.6006 7.3656,8.368 9.0604,12.021 9.0604,19.5293 0,18.0537 -36.499,171.42906 -63.9819,268.86106 -17.7219,62.8288 -25.0537,99.1582 -26.7024,132.307 -1.2813,25.7705 1.2745,55.8563 6.2794,73.9139 6.2552,22.5709 35.6934,21.7119 83.5335,-2.4376 l 13.9192,-7.0266 1.4407,-12.2553 c 0.7919,-6.7404 2.4763,-26.7545 3.7429,-44.4758 3.2252,-45.1362 15.5624,-91.3465 46.228,-173.1546 27.0876,-72.2645 46.3307,-106.0264 75.6368,-132.7054 43.9158,-39.97886 171.7891,-114.85486 232.3191,-136.03396 21.0842,-7.3773 53.9806,-7.4123 77.4674,-0.082 14.3465,4.4772 18.8968,7.2562 29.9016,18.2608 20.8219,20.8216 27.4303,44.3725 27.3549,97.4824 l -0.046,29.70176 -18.7898,13.6508 c -83.7725,60.8607 -111.2435,78.8818 -120.2454,78.8818 -6.3781,0 -6.7661,-2.7725 -7.8271,-55.9765 -1.0661,-53.47036 -4.0308,-67.20296 -17.5826,-81.44906 -7.2436,-7.6147 -9.7244,-8.7977 -18.4343,-8.7903 -27.774,0.023 -56.1671,35.5516 -80.5139,100.74636 -29.2833,78.4142 -47.3672,167.6482 -47.4133,233.962 -0.046,54.5433 8.253,78.5674 32.3681,93.7906 26.8998,16.9812 66.6925,16.0101 115.1472,-2.8101 31.6704,-12.3011 111.3499,-52.0245 117.3314,-58.4945 4.1665,-4.5065 8.9476,-20.3887 21.9204,-72.8166 9.1249,-36.8791 21.4658,-81.447 27.4235,-99.0396 28.3086,-83.5927 70.7575,-148.0768 117.1618,-177.97896 37.6336,-24.2506 109.5048,-57.9636 205.0012,-96.1608 59.713,-23.8845 70.885,-25.9118 89.8458,-16.3038 33.9579,17.2078 45.9272,43.678 43.2989,95.757 -1.4463,28.6493 -5.5954,46.88186 -16.6472,73.14656 -17.1165,40.6769 -39.0817,67.2853 -89.3418,108.2266 -23.2684,18.9542 -56.0364,40.7321 -168.6612,112.0939 l -38.8408,24.6106 -0.68,15.6114 c -1.4138,32.4539 10.3966,71.0362 26.5685,86.7938 11.3018,11.0123 21.0874,14.6801 47.4677,17.7913 54.1277,6.3836 107.8405,-9.9235 174.5399,-52.9901 33.7033,-21.7615 40.1317,-27.7431 45.6407,-42.4671 10.418,-27.8452 62.5105,-224.3189 105.0015,-396.02646 51.4024,-207.7211 58.307,-229.4936 86.5685,-272.9861 23.1546,-35.6327 53.9641,-59.3385 103.987,-80.0108 40.2607,-16.6378 165.7614,-58.2593 175.669,-58.2593 3.5263,0 0.3473,16.0819 -6.6152,33.4761 -8.0579,20.1287 -17.6758,29.3202 -47.5883,45.4796 -42.7547,23.0969 -60.1805,44.6259 -76.4713,94.4778 -12.8586,39.3484 -91.78,330.236 -115.6649,426.31506 -36.6269,147.3365 -53.4094,287.104 -36.0013,299.8328 10.1511,7.4227 39.4586,1.0217 79.0315,-17.2611 l 19.3821,-8.9546 3.9243,-25.9978 c 7.3349,-48.5934 18.7871,-93.5876 38.7471,-152.2355 21.1053,-62.012 33.8378,-90.3021 55.7838,-123.9433 28.3003,-43.3815 73.5298,-76.22036 176.4937,-128.14336 22.3802,-11.2858 63.6328,-32.8473 91.6727,-47.9145 60.5346,-32.5282 68.285,-35.2162 96.6009,-33.504 30.538,1.8466 43.4081,7.4756 64.3456,28.1431 16.352,16.141 25.9781,21.0919 25.9781,13.3608 0,-1.9927 4.2684,-5.4253 9.7102,-7.8091 15.2526,-6.6813 100.4768,-16.0524 145.985,-16.0524 17.1851,0 20.9193,-0.6881 24.8006,-4.5695 2.5132,-2.5133 4.5695,-5.5701 4.5695,-6.793 0,-5.3583 9.3817,-100.2325 10.6246,-107.4449 2.6709,-15.4972 4.2419,-16.4205 81.5032,-47.905 30.3813,-12.3807 62.1655,-25.6383 70.6305,-29.4614 20.3956,-9.2108 31.3368,-11.2497 34.8188,-6.4882 3.333,4.5583 1.5536,21.9778 -9.3817,91.8513 -13.8945,88.7811 -14.2783,92.2018 -10.6785,95.1895 4.1857,3.4738 65.6914,1.1721 129.7829,-4.8568 74.2509,-6.9846 106.025,-13.4971 141.9272,-29.0902 17.802,-7.7317 19.7093,-8.1059 28.2584,-5.5446 6.5764,1.9704 9.1678,3.9906 9.1678,7.1472 0,5.2752 -41.0918,67.3219 -55.0485,83.1209 -5.4249,6.1409 -13.178,12.5502 -17.2293,14.2429 -8.4152,3.5161 -76.9397,6.8613 -186.2054,9.0899 l -69.9912,1.4276 -19.9423,64.2884 c -10.9682,35.35856 -26.0622,83.30886 -33.5421,106.55626 -31.403,97.5998 -49.1442,180.7547 -51.4554,241.1777 -1.4573,38.0933 -0.6046,41.7491 11.4512,49.1002 14.9363,9.1073 33.1911,5.7517 94.1004,-17.2975 17.5926,-6.6574 36.0018,-12.8558 40.909,-13.7744 l 8.9225,-1.67 -1.4641,10.6824 c -0.8056,5.8754 -4.649,18.3327 -8.5418,27.6831 -8.699,20.8957 -9.0111,21.1369 -84.3783,65.1498 -119.3128,69.6764 -140.6515,81.2427 -168.526,91.3458 -32.7698,11.8776 -59.8921,-2.2565 -78.947,-41.1409 -7.181,-14.6548 -7.2875,-15.3636 -8.0401,-53.6918 -0.8092,-41.2387 2.2683,-91.7783 7.6521,-125.6616 5.5918,-35.1891 24.4926,-103.0566 78.9635,-283.5351 17.4834,-57.92816 32.4203,-108.48416 33.1925,-112.34666 1.3658,-6.8292 1.13,-7.0638 -8.5555,-8.5137 -10.8882,-1.6299 -82.6648,2.2654 -108.1695,5.8702 -8.7767,1.2405 -19.5722,4.0242 -23.99,6.1861 -9.4588,4.6287 -9.3697,3.5591 -4.697,56.47996 3.5647,40.3735 2.0591,95.8926 -3.3773,124.5192 -23.9863,126.3183 -89.4295,263.5641 -144.9559,303.9996 -14.5923,10.6262 -128.4472,73.1079 -164.5866,90.322 -77.3043,36.8223 -122.0503,46.3622 -165.4255,35.2688 -48.4094,-12.3811 -72.7818,-39.8719 -87.1498,-98.3006 -3.2443,-13.1945 -6.6472,-24.7536 -7.562,-25.687 -0.9144,-0.9333 -21.1532,9.6277 -44.975,23.469 -23.8223,13.8412 -46.6502,26.3765 -50.7289,27.8561 -4.0788,1.4795 -7.9715,4.4392 -8.6497,6.5769 -0.6785,2.1377 -3.5103,4.4582 -6.2926,5.1566 -2.7824,0.6983 -17.3966,8.6453 -32.476,17.6599 -35.8396,21.4253 -83.5138,44.6857 -98.4278,48.0232 -14.9144,3.3377 -24.6959,1.5257 -38.2847,-7.092 -18.6418,-11.8222 -31.3885,-38.482 -34.7603,-72.7019 -1.375,-13.9555 1.5481,-59.3114 4.8496,-75.2391 0.7037,-3.3947 -0.046,-5.1407 -2.1399,-5.1407 -1.7634,0 -22.6027,13.5565 -46.3102,30.1256 -100.9538,70.5565 -153.6494,100.8716 -205.3219,118.1186 -74.5041,24.8677 -143.3059,9.4331 -177.0495,-39.7182 -12.0726,-17.5855 -23.2456,-56.2708 -28.1998,-97.6391 l -2.6636,-22.2422 -75.397,54.9065 c -91.0046,66.2726 -114.2026,81.8389 -141.3862,94.8731 -33.7879,16.201 -70.4989,23.1863 -108.7946,20.7013 -40.3438,-2.618 -66.7857,-13.3943 -90.3955,-36.8398 -16.1816,-16.0695 -26.2391,-34.7565 -32.1109,-59.6627 -2.2879,-9.7054 -5.5364,-17.985 -7.3249,-18.6715 -4.564,-1.7513 -17.9267,5.2963 -94.0749,49.617 -81.4397,47.4006 -118.6319,66.3909 -133.2529,68.0389 -33.7573,3.8049 -57.6394,-20.5684 -65.7412,-67.0936 -8.4197,-48.3493 7.6142,-154.8992 46.1983,-306.9962 37.1954,-146.6235 37.3909,-150.1309 8.2534,-148.0232 -11.2062,0.8105 -19.372,3.9348 -48.143,18.4203 -35.5453,17.8959 -63.598,35.0454 -70.5784,43.1465 -6.1003,7.0796 -17.0178,43.295 -61.3868,203.6309 -22.5817,81.603 -42.5235,151.2033 -44.3147,154.6673 -3.5117,6.7911 -10.3614,11.4316 -52.5723,35.6162 -15.0794,8.6397 -39.7547,23.8658 -54.8341,33.8358 -45.2729,29.9329 -58.4309,34.1664 -71.6418,23.0501 -14.3926,-12.1104 -14.3926,-23.106 0,-75.2908 12.9601,-46.9959 13.9046,-45.3672 -16.8912,-29.1265 -14.1367,7.4553 -35.4708,19.7156 -47.4087,27.245 -25.7656,16.2508 -107.5343,62.4497 -134.244,75.8473 -29.8696,14.9825 -51.7086,19.1371 -71.3841,13.58 z m 2400.7583,-117.3359 c 29.0831,-8.6368 60.5506,-37.8116 80.3083,-74.4567 19.5758,-36.3079 24.4583,-56.018 38.0873,-153.7471 17.5515,-125.8592 18.1241,-151.558 4.3461,-195.1722 -27.1201,-85.85066 -102.3228,-52.72156 -146.0298,64.3305 -31.8613,85.3271 -53.1539,206.0614 -46.949,266.2076 5.2463,50.854 20.7822,81.7966 46.7681,93.1488 8.8018,3.845 9.5064,3.8356 23.469,-0.3107 z m -2509.44325,-70.628 c 22.38695,-8.4263 68.26665,-32.4401 74.34915,-38.9149 5.6671,-6.0323 7.1376,-10.806 46.1133,-149.7201 54.1455,-192.97986 50.0183,-176.6589 45.7646,-180.9803 -5.9326,-6.02706 -27.997,-10.65266 -66.2795,-13.89496 l -34.9015,-2.956 -10.8471,11.52376 c -15.5665,16.5378 -24.3897,30.2499 -38.06895,59.163 -25.9284,54.8035 -47.3004,133.0331 -60.6745,222.092 -4.6865,31.207 -6.6285,79.6807 -3.5747,89.2199 3.556,11.1077 25.1515,13.1127 48.1192,4.4676 z m 1704.58745,-198.731 c 11.3096,-7.7452 25.2612,-16.802 31.0042,-20.1263 14.3999,-8.3358 53.8425,-46.1074 62.8815,-60.2169 16.6006,-25.9146 26.064,-60.8042 26.064,-96.0942 0,-30.73136 -8.6039,-43.84136 -27.1415,-41.35506 -37.6235,5.0465 -76.777,58.27116 -104.1013,141.51456 -7.8097,23.7934 -24.1206,89.0808 -24.1206,96.5489 0,2.3861 14.1906,-5.7367 35.4137,-20.271 z"
     id="path70"
     inkscape:connector-curvature="0" />
  <path
     style="fill:#221e1f;fill-opacity:1;stroke:#221e1f;stroke-width:2.28475666;stroke-opacity:1"
     d="m 413.41315,1599.9774 c -12.0014,-3.4783 -28.9949,-16.3368 -36.5703,-27.6719 -10.1923,-15.2499 -16.3556,-35.3516 -20.5258,-66.942 -5.7813,-43.7977 -1.2918,-83.0465 23.0085,-201.1302 35.1034,-170.582 78.7103,-300.9789 159.0135,-475.49536 36.6279,-79.5997 76.6422,-150.6014 139.2217,-247.0348 9.1906,-14.163 16.3035,-26.0537 15.8064,-26.4237 -3.8293,-2.8481 -175.2934,5.7746 -223.6686,11.2479 -56.2849,6.3682 -139.2262,25.0865 -181.6861,41.0032 -55.5013,20.8053 -106.0639,57.8857 -131.3995,96.3622 -35.4896,53.8972 -40.7455,112.386 -18.3279,203.9496 8.6186,35.2022 8.7086,39.4901 0.9582,45.5866 -8.1109,6.3799 -19.7311,5.9974 -35.1057,-1.1556 -26.480802,-12.3198 -75.084902,-54.4853 -88.437502,-76.7217 -19.2092995,-31.9897 -19.3888995,-85.4408 -0.4523,-134.6167 12.6886,-32.9503 28.1166,-55.5624 59.1879,-86.7496 50.086002,-50.2722 104.515802,-81.8638 190.777202,-110.729 109.285,-36.5693 204.0923,-49.2517 392.9782,-52.5685 103.425,-1.8161 90.8679,1.0082 128.3311,-28.86444 78.4526,-62.5568 148.0193,-99.4528 234.54945,-124.3982 68.1213,-19.6383 155.8807,-26.2494 207.4828,-15.6299 31.043,6.3886 69.3319,22.9735 88.6257,38.3888 12.8614,10.2759 42.5299,48.3697 45.5677,58.5077 4.0298,13.4511 3.1337,38.6032 -1.7597,49.3772 -7.3848,16.25994 -30.5596,31.67684 -64.6481,43.00714 -65.2157,21.6762 -170.4274,33.4098 -368.10305,41.0524 -19.9386,0.7709 -25.5888,1.7697 -29.3733,5.1925 -9.3342,8.4423 -46.6031,61.622 -62.0837,88.5886 -20.2105,35.2065 -67.892,129.0391 -83.6865,164.6878 -6.6811,15.0794 -18.0542,40.2929 -25.2731,56.03 -15.3732,33.5123 -57.2199,144.21716 -80.0944,211.88926 -22.8211,67.5118 -37.2882,115.7165 -51.2476,170.754 -15.5697,61.3854 -22.1996,100.5738 -22.4198,132.5159 -0.192,27.9544 2.0293,34.8955 14.5406,45.423 13.4481,11.3159 32.221,8.2729 95.0221,-15.4027 21.2853,-8.0245 42.0066,-15.3161 46.0475,-16.2036 9.3314,-2.0496 9.5041,0.8224 1.5605,25.9679 -8.8101,27.8891 -14.9401,34.2708 -54.842,57.091 -18.894,10.8059 -44.5975,25.9459 -57.1189,33.6445 -65.5145,40.2817 -147.3832,83.5619 -165.3556,87.4162 -13.8474,2.9698 -30.3644,2.992 -40.4996,0.054 z M 1088.8676,475.872 c 129.4548,-13.0329 169.7136,-26.4511 187.4487,-62.4761 9.1825,-18.6525 8.5542,-26.1251 -2.658,-31.6081 -19.0938,-9.3371 -76.5207,-10.6759 -115.452,-2.6916 -20.9412,4.2948 -60.9843,19.4823 -92.0282,34.9042 -21.6654,10.7631 -85.19985,56.434 -87.74915,63.0775 -0.7261,1.8923 0.3792,3.775 2.6105,4.439 6.4947,1.93424 60.76765,-0.9071 107.82815,-5.6449 z"
     id="path72"
     inkscape:connector-curvature="0" />
  <path
     style="fill:#221e1f;fill-opacity:1;stroke:#221e1f;stroke-width:2.28475666;stroke-opacity:1"
     d="m 2195.8825,889.91814 c -0.8509,-5.0362 -2.3972,-79.9042 -3.4359,-166.3732 -1.2639,-105.2005 -2.7435,-160.0185 -4.4721,-165.6858 -2.7609,-9.0489 -10.0804,-15.3875 -22.9865,-19.9061 -11.8442,-4.1468 -59.0518,-5.9779 -69.0499,-2.6784 -10.483,3.4597 -27.9979,22.1089 -31.5639,33.6081 -1.513,4.8782 -3.3979,28.9183 -4.1889,53.4223 l -1.4385,44.5528 -11.4238,-0.1024 c -19.7842,-0.1773 -39.3988,-11.7294 -67.5762,-39.798 -19.0686,-18.995 -25.9361,-27.6313 -32.5578,-40.9441 -7.4552,-14.9885 -8.3915,-18.8134 -8.3901,-34.2713 0,-26.2584 13.9635,-73.90114 24.2632,-82.79784 7.2249,-6.2406 18.8534,-8.6026 54.5591,-11.0818 78.4923,-5.45 116.9119,-15.9097 166.2873,-45.2719 19.8555,-11.8072 35.9136,-27.3979 35.9136,-34.8675 0,-2.6317 -2.4748,-9.0805 -5.4994,-14.3308 -7.0987,-12.3217 -18.347,-48.2018 -21.9734,-70.0919 -5.3628,-32.3712 1.4083,-78.1996 15.821,-107.0773 3.5336,-7.0798 7.0517,-15.4822 7.818,-18.672 0.7663,-3.1898 11.1862,-16.5557 23.1551,-29.7019 11.9689,-13.1462 21.771,-25.0023 21.7829,-26.3469 0,-1.3446 -3.4258,-6.4853 -7.6393,-11.4238 -12.7024,-14.887898 -16.0244,-23.297198 -16.1843,-40.965698 -0.1188,-13.0934 1.0199,-18.3653 6.2794,-29.0755 3.5331,-7.1952 9.5804,-15.3298 13.4385,-18.0768 13.6546,-9.7232002 42.7418,-13.5592002 65.6164,-8.6535002 18.9264,4.059 33.5566,25.4600002 36.1434,52.8704002 1.3668,14.4864 -0.5844,20.8732 -12.4153,40.6339 -4.1382,6.911398 -7.5265,14.316298 -7.5297,16.455298 0,2.139 5.9971,10.6515 13.3339,18.9166 17.8919,20.1558 31.3436,44.3437 42.4535,76.3361 9.0106,25.9474 9.2085,27.1856 9.1559,57.364 -0.046,27.1098 -0.8179,33.3339 -6.3681,51.4071 -3.4728,11.3095 -10.8772,30.2107 -16.4543,42.0027 -11.3146,23.9233 -11.8643,26.5808 -6.1419,29.7032 2.1993,1.1999 11.1953,7.9668 19.9916,15.0375 17.743,14.262 61.8836,36.9035 86.7495,44.4974 10.3755,3.1685 33.0458,6.4498 65.0763,9.4193 55.9331,5.1855 64.3497,7.1247 74.3583,17.1334 16.1815,16.18164 26.5251,70.09194 18.6477,97.18984 -4.6943,16.1477 -18.1597,36.8851 -34.6735,53.399 -28.4086,28.4085 -78.0043,52.8325 -84.8362,41.7783 -0.9632,-1.5588 -2.3108,-23.9208 -2.9944,-49.6934 -1.2059,-45.4706 -1.422,-47.1641 -7.2856,-57.1435 -10.6314,-18.094 -12.287,-18.8681 -45.437,-21.2411 -41.7493,-2.9886 -48.1841,-1.6742 -61.9155,12.6476 l -11.1167,11.5944 v 114.8463 114.8464 l -8.5678,2.7474 c -23.3018,7.472 -94.0178,45.9896 -147.6748,80.4355 -17.4478,11.2009 -33.0248,20.8647 -34.615,21.475 -1.9055,0.7311 -3.4198,-2.0143 -4.4388,-8.0472 z"
     id="path74"
     inkscape:connector-curvature="0" />
  <path
     style="fill:#221e1f;fill-opacity:1;stroke:#221e1f;stroke-width:2.28475666;stroke-opacity:1"
     d="m 2276.7126,2157.2608 c -5.5291,-3.9901 -27.3339,-24.2961 -48.4556,-45.124 l -38.4026,-37.8689 1.6363,-227.3834 1.6368,-227.3834 51.418,-26.2246 c 28.2803,-14.4235 62.8175,-32.6513 76.7495,-40.5062 36.1284,-20.3689 67.2921,-35.9092 68.8621,-34.339 0.7412,0.7408 1.9512,127.7487 2.6892,282.2399 l 1.3421,280.8928 -46.6287,38.8578 c -44.2471,36.8732 -53.86,44.094 -58.7018,44.094 -1.1506,0 -6.6162,-3.2649 -12.1453,-7.255 z"
     id="path76"
     inkscape:connector-curvature="0" />
  <path
     style="fill:#221e1f;fill-opacity:1;stroke:#221e1f;stroke-width:0.14279729;stroke-opacity:1"
     d="m 4342.0604,720.93434 c -8.3056,-0.5455 -17.2065,-2.2933 -24.7183,-4.8538 -19.1778,-6.5369 -33.9232,-21.5754 -40.9442,-41.7585 -2.8683,-8.2445 -4.2374,-16.4583 -4.236,-25.4107 0,-8.8004 1.1991,-16.2595 3.9225,-24.4255 6.2634,-18.7822 18.9795,-32.8766 37.9256,-42.0368 9.436,-4.5622 19.4168,-7.1168 29.5675,-7.5679 11.74,-0.5218 23.0979,1.8083 33.611,6.8952 3.1237,1.5115 4.9502,2.5634 8.211,4.7294 12.4857,8.2936 21.93,20.4517 27.2498,35.0796 2.0431,5.6187 3.5336,12.0559 4.2264,18.2512 0.7553,6.7588 0.6507,14.9023 -0.2788,21.7232 -2.4981,18.3345 -11.0934,33.98 -24.6086,44.7936 -1.763,1.4103 -6.1803,4.4063 -8.0881,5.4853 -9.3702,5.2999 -20.0313,8.3755 -31.5584,9.1041 -2.5891,0.1636 -7.7252,0.1595 -10.2814,-0.01 z m 6.9255,-9.068 c 6.9201,-0.7998 14.6983,-3.4307 23.8474,-8.0658 5.0329,-2.5499 8.0908,-4.5222 10.1069,-6.5187 1.5216,-1.5071 2.0956,-2.6216 2.0037,-3.8921 -0.1554,-2.1724 -2.447,-3.9203 -7.3948,-5.6456 -2.3492,-0.8191 -3.6497,-1.4621 -5.5872,-2.7627 -2.282,-1.5321 -4.4018,-3.298 -6.9653,-5.8032 -2.9222,-2.8554 -4.4557,-4.624 -7.3053,-8.4261 -2.9153,-3.889 -4.2332,-5.4581 -6.4179,-7.6398 -2.1696,-2.1666 -4.2149,-3.7332 -6.1194,-4.6866 -1.6647,-0.8334 -2.697,-1.0836 -4.0989,-0.9936 -2.3469,0.1508 -3.837,1.7652 -4.665,5.0542 -0.2879,1.1386 -0.3199,1.6131 -0.3153,4.6245 0,2.3587 0.073,3.8224 0.2422,4.9265 0.9166,6.1275 1.1044,7.54 1.2488,9.395 0.2788,3.5553 -0.1234,5.5172 -1.3658,6.6605 -1.2621,1.1634 -2.6823,1.4669 -6.9192,1.4781 -4.3707,0.014 -5.6822,-0.2971 -6.9301,-1.6316 -2.4154,-2.582 -2.6978,-7.6838 -1.6372,-29.5537 1.0519,-21.6937 0.5401,-33.0803 -1.8119,-40.3257 -0.535,-1.6491 -1.1638,-2.8266 -2.329,-4.3608 -1.5962,-2.1017 -1.9457,-2.9876 -1.5116,-3.8271 0.6539,-1.2651 3.2393,-1.8558 9.516,-2.1744 3.9129,-0.1988 20.0414,-0.099 22.768,0.1402 9.6243,0.846 15.2627,2.455 18.9174,5.3989 3.248,2.6161 4.58,5.9833 4.3885,11.0931 -0.1416,3.8358 -0.7188,6.2674 -3.3124,14.0072 -2.5786,7.6929 -3.116,10.008 -3.1173,13.4229 0,3.8588 1.0322,6.8145 4.0837,11.6794 4.607,7.3455 9.7815,13.1627 14.4054,16.1944 7.8527,5.1489 14.6174,2.773 18.5797,-6.5256 2.1645,-5.0802 3.3755,-11.5598 3.8288,-20.4914 0.4432,-8.7354 -0.6128,-16.6269 -3.2805,-24.4999 -3.2663,-9.6401 -8.4938,-18.0279 -15.7941,-25.3422 -5.2151,-5.2249 -10.54,-9.0479 -16.994,-12.2009 -6.2547,-3.0556 -11.9365,-4.7501 -18.9922,-5.6642 -2.8336,-0.3669 -9.2656,-0.3701 -11.2095,0 -7.2637,1.3633 -14.4863,4.5379 -22.4907,9.8856 -10.7854,7.2057 -19.966,16.8557 -24.7202,25.9832 -1.6678,3.2022 -2.9117,6.7453 -4.2098,11.995 -4.8675,19.6809 -1.6181,37.2477 9.6069,51.9376 4.7559,6.2239 11.6239,12.4589 19.3597,17.5759 7.5136,4.9698 13.8616,7.8339 20.1629,9.097 4.198,0.8417 8.0575,0.9931 12.4296,0.4877 z m -4.2642,-63.9758 c 4.8391,-0.6278 8.2941,-2.5624 10.493,-5.8756 2.9263,-4.4087 2.8225,-10.1638 -0.2971,-16.5295 -1.5787,-3.22 -3.279,-5.5689 -5.7425,-7.933 -1.9283,-1.8501 -3.8882,-3.0961 -5.6136,-3.5683 -1.4911,-0.4081 -3.349,-0.1284 -4.3831,0.6604 -2.6001,1.9831 -4.3963,12.3633 -3.9298,22.7061 0.2742,6.0219 0.8253,8.2355 2.4068,9.624 1.2781,1.1224 3.3791,1.3946 7.0681,0.9159 z"
     id="path78"
     inkscape:connector-curvature="0" />
</svg>
